<?xml version="1.0" encoding="UTF-8" standalone="no"?>
<!DOCTYPE svg PUBLIC "-//W3C//DTD SVG 1.1//EN" "http://www.w3.org/Graphics/SVG/1.1/DTD/svg11.dtd">
<!-- Generated by graphviz version 2.47.3 (20210619.1520)
 -->
<!-- Pages: 1 -->
<svg width="797pt" height="476pt" viewBox="0.00 0.00 797.00 476.00" xmlns="http://www.w3.org/2000/svg"
    xmlns:xlink="http://www.w3.org/1999/xlink">
    <g id="graph0" class="graph" transform="scale(1 1) rotate(0) translate(4 472)">
        <polygon fill="white" stroke="transparent" points="-4,4 -4,-472 793,-472 793,4 -4,4" />
        <!-- 00 -->
        <g id="node1" class="node">
            <title>00</title>
            <polygon fill="yellow" stroke="black" points="524.5,-36 264.5,-36 264.5,0 524.5,0 524.5,-36" />
            <text text-anchor="middle" x="394.5" y="-14.3" font-family="Times,serif"
                font-size="14.00">https://github.com/kennethreitz/requests.git</text>
        </g>
        <!-- 01 -->
        <g id="node2" class="node">
            <title>01</title>
            <polygon fill="yellow" stroke="black" points="544,-90 245,-90 245,-54 544,-54 544,-90" />
            <text text-anchor="middle" x="394.5" y="-68.3" font-family="Times,serif"
                font-size="14.00">https://github.com/networkx/networkx.git(=v1.10)</text>
        </g>
        <!-- 02 -->
        <g id="node3" class="node">
            <title>02</title>
            <polygon fill="yellow" stroke="black" points="534.5,-144 254.5,-144 254.5,-108 534.5,-108 534.5,-144" />
            <text text-anchor="middle" x="394.5" y="-122.3" font-family="Times,serif"
                font-size="14.00">https://github.com/pallets/flask.git(=38eb5d3b)</text>
        </g>
        <!-- 03 -->
        <g id="node4" class="node">
            <title>03</title>
            <polygon fill="yellow" stroke="black" points="535,-198 254,-198 254,-162 535,-162 535,-198" />
            <text text-anchor="middle" x="394.5" y="-176.3" font-family="Times,serif"
                font-size="14.00">https://github.com/pandas&#45;dev/pandas(=v1.2.3)</text>
        </g>
        <!-- 04 -->
        <g id="node5" class="node">
            <title>04</title>
            <polygon fill="yellow" stroke="black" points="449.5,-252 339.5,-252 339.5,-216 449.5,-216 449.5,-252" />
            <text text-anchor="middle" x="394.5" y="-230.3" font-family="Times,serif"
                font-size="14.00">black(=19.10b0)</text>
        </g>
        <!-- 05 -->
        <g id="node6" class="node">
            <title>05</title>
            <polygon fill="yellow" stroke="black" points="442.5,-306 346.5,-306 346.5,-270 442.5,-270 442.5,-306" />
            <text text-anchor="middle" x="394.5" y="-284.3" font-family="Times,serif"
                font-size="14.00">flake8(=3.9.2)</text>
        </g>
        <!-- 06 -->
        <g id="node7" class="node">
            <title>06</title>
            <polygon fill="yellow" stroke="black" points="438,-360 351,-360 351,-324 438,-324 438,-360" />
            <text text-anchor="middle" x="394.5" y="-338.3" font-family="Times,serif"
                font-size="14.00">loguru(~0.5)</text>
        </g>
        <!-- 07 -->
        <g id="node8" class="node">
            <title>07</title>
            <polygon fill="yellow" stroke="black" points="789,-414 0,-414 0,-378 789,-378 789,-414" />
            <text text-anchor="middle" x="394.5" y="-392.3" font-family="Times,serif"
                font-size="14.00">https://files.pythonhosted.org/packages/63/30/c5c72431045f502d523bdf749ce9afa90ee1591426fcdd3db05f216ca8b7/fastapi&#45;0.66.0.tar.gz</text>
        </g>
        <!-- 08 -->
        <g id="node9" class="node">
            <title>08</title>
            <polygon fill="yellow" stroke="black" points="452.5,-468 336.5,-468 336.5,-432 452.5,-432 452.5,-468" />
            <text text-anchor="middle" x="394.5" y="-446.3" font-family="Times,serif"
                font-size="14.00">toml&#45;0.10.2.tar.gz</text>
        </g>
    </g>
</svg>