<?xml version="1.0" encoding="UTF-8" standalone="no"?>
<!DOCTYPE svg PUBLIC "-//W3C//DTD SVG 1.1//EN" "http://www.w3.org/Graphics/SVG/1.1/DTD/svg11.dtd">
<!-- Generated by graphviz version 2.47.3 (20210619.1520)
 -->
<!-- Pages: 1 -->
<svg width="1268pt" height="1086pt" viewBox="0.00 0.00 1268.00 1286.00" xmlns="http://www.w3.org/2000/svg"
    xmlns:xlink="http://www.w3.org/1999/xlink">
    <g id="graph0" class="graph" transform="scale(1 1) rotate(0) translate(4 1282)">
        <polygon fill="white" stroke="transparent" points="-4,4 -4,-1282 1264,-1282 1264,4 -4,4" />
        <!-- 00 -->
        <g id="node1" class="node">
            <title>00</title>
            <polygon fill="yellow" stroke="black" points="577.5,-117 263.5,-117 263.5,-81 577.5,-81 577.5,-117" />
            <text text-anchor="middle" x="420.5" y="-95.3" font-family="Times,serif"
                font-size="14.00">https://github.com/kennethreitz/requests.git(=master)</text>
        </g>
        <!-- 01 -->
        <g id="node2" class="node">
            <title>01</title>
            <polygon fill="none" stroke="black" stroke-dasharray="5,2"
                points="1022,-198 900,-198 900,-162 1022,-162 1022,-198" />
            <text text-anchor="middle" x="961" y="-176.3" font-family="Times,serif"
                font-size="14.00">certifi(=2021.5.30)</text>
        </g>
        <!-- 00&#45;&gt;01 -->
        <g id="edge1" class="edge">
            <title>00&#45;&gt;01</title>
            <path fill="none" stroke="black" d="M541.34,-117.03C648.48,-133.14 801.78,-156.2 890.08,-169.48" />
            <polygon fill="black" stroke="black" points="889.58,-172.95 899.99,-170.97 890.63,-166.03 889.58,-172.95" />
        </g>
        <!-- 02 -->
        <g id="node3" class="node">
            <title>02</title>
            <polygon fill="none" stroke="black" stroke-dasharray="5,2"
                points="1012.5,-144 909.5,-144 909.5,-108 1012.5,-108 1012.5,-144" />
            <text text-anchor="middle" x="961" y="-122.3" font-family="Times,serif"
                font-size="14.00">chardet(=4.0.0)</text>
        </g>
        <!-- 00&#45;&gt;02 -->
        <g id="edge2" class="edge">
            <title>00&#45;&gt;02</title>
            <path fill="none" stroke="black" d="M577.62,-106.83C685.07,-112.22 821.9,-119.08 899.34,-122.96" />
            <polygon fill="black" stroke="black" points="899.25,-126.46 909.41,-123.46 899.6,-119.47 899.25,-126.46" />
        </g>
        <!-- 03 -->
        <g id="node4" class="node">
            <title>03</title>
            <polygon fill="none" stroke="black" stroke-dasharray="5,2"
                points="1002,-90 920,-90 920,-54 1002,-54 1002,-90" />
            <text text-anchor="middle" x="961" y="-68.3" font-family="Times,serif" font-size="14.00">idna(=2.10)</text>
        </g>
        <!-- 00&#45;&gt;03 -->
        <g id="edge3" class="edge">
            <title>00&#45;&gt;03</title>
            <path fill="none" stroke="black" d="M577.62,-91.17C690.04,-85.54 834.62,-78.29 909.7,-74.52" />
            <polygon fill="black" stroke="black" points="910.01,-78.01 919.83,-74.01 909.66,-71.02 910.01,-78.01" />
        </g>
        <!-- 04 -->
        <g id="node5" class="node">
            <title>04</title>
            <polygon fill="none" stroke="black" stroke-dasharray="5,2"
                points="1014,-36 908,-36 908,0 1014,0 1014,-36" />
            <text text-anchor="middle" x="961" y="-14.3" font-family="Times,serif"
                font-size="14.00">urllib3(=1.26.6)</text>
        </g>
        <!-- 00&#45;&gt;04 -->
        <g id="edge4" class="edge">
            <title>00&#45;&gt;04</title>
            <path fill="none" stroke="black" d="M541.34,-80.97C651.65,-64.38 810.9,-40.43 897.75,-27.36" />
            <polygon fill="black" stroke="black" points="898.35,-30.81 907.72,-25.86 897.31,-23.89 898.35,-30.81" />
        </g>
        <!-- 05 -->
        <g id="node6" class="node">
            <title>05</title>
            <polygon fill="yellow" stroke="black" points="570,-252 271,-252 271,-216 570,-216 570,-252" />
            <text text-anchor="middle" x="420.5" y="-230.3" font-family="Times,serif"
                font-size="14.00">https://github.com/networkx/networkx.git(=v1.10)</text>
        </g>
        <!-- 06 -->
        <g id="node7" class="node">
            <title>06</title>
            <polygon fill="none" stroke="black" stroke-dasharray="5,2"
                points="1018.5,-252 903.5,-252 903.5,-216 1018.5,-216 1018.5,-252" />
            <text text-anchor="middle" x="961" y="-230.3" font-family="Times,serif"
                font-size="14.00">decorator(=5.0.9)</text>
        </g>
        <!-- 05&#45;&gt;06 -->
        <g id="edge5" class="edge">
            <title>05&#45;&gt;06</title>
            <path fill="none" stroke="black" d="M570.07,-234C675.69,-234 812.55,-234 892.87,-234" />
            <polygon fill="black" stroke="black" points="893.34,-237.5 903.34,-234 893.34,-230.5 893.34,-237.5" />
        </g>
        <!-- 07 -->
        <g id="node8" class="node">
            <title>07</title>
            <polygon fill="yellow" stroke="black" points="560.5,-765 280.5,-765 280.5,-729 560.5,-729 560.5,-765" />
            <text text-anchor="middle" x="420.5" y="-743.3" font-family="Times,serif"
                font-size="14.00">https://github.com/pallets/flask.git(=38eb5d3b)</text>
        </g>
        <!-- 08 -->
        <g id="node9" class="node">
            <title>08</title>
            <polygon fill="none" stroke="black" stroke-dasharray="5,2"
                points="1005.5,-684 916.5,-684 916.5,-648 1005.5,-648 1005.5,-684" />
            <text text-anchor="middle" x="961" y="-662.3" font-family="Times,serif"
                font-size="14.00">click(=8.0.1)</text>
        </g>
        <!-- 07&#45;&gt;08 -->
        <g id="edge6" class="edge">
            <title>07&#45;&gt;08</title>
            <path fill="none" stroke="black" d="M541.34,-728.97C655.41,-711.82 821.81,-686.79 906.37,-674.07" />
            <polygon fill="black" stroke="black" points="906.9,-677.53 916.27,-672.58 905.86,-670.6 906.9,-677.53" />
        </g>
        <!-- 010 -->
        <g id="node11" class="node">
            <title>010</title>
            <polygon fill="none" stroke="black" stroke-dasharray="5,2"
                points="1027,-738 895,-738 895,-702 1027,-702 1027,-738" />
            <text text-anchor="middle" x="961" y="-716.3" font-family="Times,serif"
                font-size="14.00">itsdangerous(=2.0.1)</text>
        </g>
        <!-- 07&#45;&gt;010 -->
        <g id="edge7" class="edge">
            <title>07&#45;&gt;010</title>
            <path fill="none" stroke="black" d="M560.53,-740.03C663.88,-734.85 800.96,-727.97 884.71,-723.78" />
            <polygon fill="black" stroke="black" points="885.09,-727.26 894.9,-723.26 884.74,-720.27 885.09,-727.26" />
        </g>
        <!-- 011 -->
        <g id="node12" class="node">
            <title>011</title>
            <polygon fill="none" stroke="black" stroke-dasharray="5,2"
                points="1008,-846 914,-846 914,-810 1008,-810 1008,-846" />
            <text text-anchor="middle" x="961" y="-824.3" font-family="Times,serif"
                font-size="14.00">jinja2(=3.0.1)</text>
        </g>
        <!-- 07&#45;&gt;011 -->
        <g id="edge8" class="edge">
            <title>07&#45;&gt;011</title>
            <path fill="none" stroke="black" d="M541.34,-765.03C654.22,-782 818.34,-806.69 903.69,-819.53" />
            <polygon fill="black" stroke="black" points="903.29,-823.01 913.7,-821.04 904.34,-816.09 903.29,-823.01" />
        </g>
        <!-- 013 -->
        <g id="node14" class="node">
            <title>013</title>
            <polygon fill="none" stroke="black" stroke-dasharray="5,2"
                points="1019,-792 903,-792 903,-756 1019,-756 1019,-792" />
            <text text-anchor="middle" x="961" y="-770.3" font-family="Times,serif"
                font-size="14.00">werkzeug(=2.0.1)</text>
        </g>
        <!-- 07&#45;&gt;013 -->
        <g id="edge9" class="edge">
            <title>07&#45;&gt;013</title>
            <path fill="none" stroke="black" d="M560.53,-753.97C667.32,-759.33 810.13,-766.49 892.89,-770.64" />
            <polygon fill="black" stroke="black" points="892.76,-774.13 902.92,-771.14 893.11,-767.14 892.76,-774.13" />
        </g>
        <!-- 09 -->
        <g id="node10" class="node">
            <title>09</title>
            <polygon fill="none" stroke="black" stroke-dasharray="5,2"
                points="1227.5,-684 1113.5,-684 1113.5,-648 1227.5,-648 1227.5,-684" />
            <text text-anchor="middle" x="1170.5" y="-662.3" font-family="Times,serif"
                font-size="14.00">colorama(=0.4.4)</text>
        </g>
        <!-- 08&#45;&gt;09 -->
        <g id="edge10" class="edge">
            <title>08&#45;&gt;09</title>
            <path fill="none" stroke="black" d="M1005.75,-666C1033.97,-666 1071.21,-666 1103.04,-666" />
            <polygon fill="black" stroke="black" points="1103.17,-669.5 1113.17,-666 1103.17,-662.5 1103.17,-669.5" />
        </g>
        <!-- 012 -->
        <g id="node13" class="node">
            <title>012</title>
            <polygon fill="none" stroke="black" stroke-dasharray="5,2"
                points="1234,-846 1107,-846 1107,-810 1234,-810 1234,-846" />
            <text text-anchor="middle" x="1170.5" y="-824.3" font-family="Times,serif"
                font-size="14.00">markupsafe(=2.0.1)</text>
        </g>
        <!-- 011&#45;&gt;012 -->
        <g id="edge11" class="edge">
            <title>011&#45;&gt;012</title>
            <path fill="none" stroke="black" d="M1008.05,-828C1034,-828 1067.02,-828 1096.43,-828" />
            <polygon fill="black" stroke="black" points="1096.66,-831.5 1106.66,-828 1096.66,-824.5 1096.66,-831.5" />
        </g>
        <!-- 014 -->
        <g id="node15" class="node">
            <title>014</title>
            <polygon fill="yellow" stroke="black" points="561,-954 280,-954 280,-918 561,-918 561,-954" />
            <text text-anchor="middle" x="420.5" y="-932.3" font-family="Times,serif"
                font-size="14.00">https://github.com/pandas&#45;dev/pandas(=v1.2.3)</text>
        </g>
        <!-- 015 -->
        <g id="node16" class="node">
            <title>015</title>
            <polygon fill="none" stroke="black" stroke-dasharray="5,2"
                points="1015,-1008 907,-1008 907,-972 1015,-972 1015,-1008" />
            <text text-anchor="middle" x="961" y="-986.3" font-family="Times,serif"
                font-size="14.00">numpy(=1.21.0)</text>
        </g>
        <!-- 014&#45;&gt;015 -->
        <g id="edge12" class="edge">
            <title>014&#45;&gt;015</title>
            <path fill="none" stroke="black" d="M561.23,-950.01C669.56,-960.88 814.62,-975.42 896.59,-983.64" />
            <polygon fill="black" stroke="black" points="896.45,-987.15 906.75,-984.66 897.15,-980.18 896.45,-987.15" />
        </g>
        <!-- 016 -->
        <g id="node17" class="node">
            <title>016</title>
            <polygon fill="none" stroke="black" stroke-dasharray="5,2"
                points="1034.5,-954 887.5,-954 887.5,-918 1034.5,-918 1034.5,-954" />
            <text text-anchor="middle" x="961" y="-932.3" font-family="Times,serif"
                font-size="14.00">python&#45;dateutil(=2.8.1)</text>
        </g>
        <!-- 014&#45;&gt;016 -->
        <g id="edge13" class="edge">
            <title>014&#45;&gt;016</title>
            <path fill="none" stroke="black" d="M561.23,-936C661.55,-936 793.36,-936 877.4,-936" />
            <polygon fill="black" stroke="black" points="877.41,-939.5 887.41,-936 877.41,-932.5 877.41,-939.5" />
        </g>
        <!-- 018 -->
        <g id="node19" class="node">
            <title>018</title>
            <polygon fill="none" stroke="black" stroke-dasharray="5,2"
                points="1009,-900 913,-900 913,-864 1009,-864 1009,-900" />
            <text text-anchor="middle" x="961" y="-878.3" font-family="Times,serif"
                font-size="14.00">pytz(=2021.1)</text>
        </g>
        <!-- 014&#45;&gt;018 -->
        <g id="edge14" class="edge">
            <title>014&#45;&gt;018</title>
            <path fill="none" stroke="black" d="M561.23,-921.99C672.4,-910.84 822.25,-895.81 902.9,-887.73" />
            <polygon fill="black" stroke="black" points="903.26,-891.21 912.86,-886.73 902.56,-884.24 903.26,-891.21" />
        </g>
        <!-- 017 -->
        <g id="node18" class="node">
            <title>017</title>
            <polygon fill="none" stroke="black" stroke-dasharray="5,2"
                points="1213,-954 1128,-954 1128,-918 1213,-918 1213,-954" />
            <text text-anchor="middle" x="1170.5" y="-932.3" font-family="Times,serif"
                font-size="14.00">six(=1.16.0)</text>
        </g>
        <!-- 016&#45;&gt;017 -->
        <g id="edge15" class="edge">
            <title>016&#45;&gt;017</title>
            <path fill="none" stroke="black" d="M1034.57,-936C1062,-936 1092.63,-936 1117.76,-936" />
            <polygon fill="black" stroke="black" points="1117.82,-939.5 1127.82,-936 1117.82,-932.5 1117.82,-939.5" />
        </g>
        <!-- 019 -->
        <g id="node20" class="node">
            <title>019</title>
            <polygon fill="yellow" stroke="black" points="475.5,-468 365.5,-468 365.5,-432 475.5,-432 475.5,-468" />
            <text text-anchor="middle" x="420.5" y="-446.3" font-family="Times,serif"
                font-size="14.00">black(=19.10b0)</text>
        </g>
        <!-- 019&#45;&gt;08 -->
        <g id="edge16" class="edge">
            <title>019&#45;&gt;08</title>
            <path fill="none" stroke="black"
                d="M461.9,-468.03C540.88,-502.99 721.6,-581.58 877,-639 886.49,-642.51 896.67,-646.02 906.54,-649.3" />
            <polygon fill="black" stroke="black" points="905.68,-652.7 916.27,-652.49 907.86,-646.05 905.68,-652.7" />
        </g>
        <!-- 020 -->
        <g id="node21" class="node">
            <title>020</title>
            <polygon fill="none" stroke="black" stroke-dasharray="5,2"
                points="1012.5,-306 909.5,-306 909.5,-270 1012.5,-270 1012.5,-306" />
            <text text-anchor="middle" x="961" y="-284.3" font-family="Times,serif"
                font-size="14.00">appdirs(=1.4.4)</text>
        </g>
        <!-- 019&#45;&gt;020 -->
        <g id="edge17" class="edge">
            <title>019&#45;&gt;020</title>
            <path fill="none" stroke="black" d="M475.6,-433.73C576.75,-403.29 793.85,-337.99 899.61,-306.17" />
            <polygon fill="black" stroke="black" points="900.92,-309.43 909.49,-303.2 898.9,-302.73 900.92,-309.43" />
        </g>
        <!-- 021 -->
        <g id="node22" class="node">
            <title>021</title>
            <polygon fill="none" stroke="black" stroke-dasharray="5,2"
                points="1007.5,-576 914.5,-576 914.5,-540 1007.5,-540 1007.5,-576" />
            <text text-anchor="middle" x="961" y="-554.3" font-family="Times,serif"
                font-size="14.00">attrs(=21.2.0)</text>
        </g>
        <!-- 019&#45;&gt;021 -->
        <g id="edge18" class="edge">
            <title>019&#45;&gt;021</title>
            <path fill="none" stroke="black" d="M475.6,-460.85C578.33,-481.45 800.64,-526.04 904.47,-546.86" />
            <polygon fill="black" stroke="black" points="903.94,-550.33 914.44,-548.86 905.32,-543.46 903.94,-550.33" />
        </g>
        <!-- 022 -->
        <g id="node23" class="node">
            <title>022</title>
            <polygon fill="none" stroke="black" stroke-dasharray="5,2"
                points="1016.5,-522 905.5,-522 905.5,-486 1016.5,-486 1016.5,-522" />
            <text text-anchor="middle" x="961" y="-500.3" font-family="Times,serif"
                font-size="14.00">pathspec(=0.8.1)</text>
        </g>
        <!-- 019&#45;&gt;022 -->
        <g id="edge19" class="edge">
            <title>019&#45;&gt;022</title>
            <path fill="none" stroke="black" d="M475.6,-455.42C575.33,-465.43 787.77,-486.73 895.08,-497.49" />
            <polygon fill="black" stroke="black" points="894.84,-500.98 905.13,-498.5 895.53,-494.02 894.84,-500.98" />
        </g>
        <!-- 023 -->
        <g id="node24" class="node">
            <title>023</title>
            <polygon fill="none" stroke="black" stroke-dasharray="5,2"
                points="1018,-468 904,-468 904,-432 1018,-432 1018,-468" />
            <text text-anchor="middle" x="961" y="-446.3" font-family="Times,serif"
                font-size="14.00">regex(=2021.7.6)</text>
        </g>
        <!-- 019&#45;&gt;023 -->
        <g id="edge20" class="edge">
            <title>019&#45;&gt;023</title>
            <path fill="none" stroke="black" d="M475.6,-450C574.94,-450 786.12,-450 893.83,-450" />
            <polygon fill="black" stroke="black" points="893.92,-453.5 903.92,-450 893.92,-446.5 893.92,-453.5" />
        </g>
        <!-- 024 -->
        <g id="node25" class="node">
            <title>024</title>
            <polygon fill="none" stroke="black" stroke-dasharray="5,2"
                points="1017.5,-414 904.5,-414 904.5,-378 1017.5,-378 1017.5,-414" />
            <text text-anchor="middle" x="961" y="-392.3" font-family="Times,serif"
                font-size="14.00">typed&#45;ast(=1.4.3)</text>
        </g>
        <!-- 019&#45;&gt;024 -->
        <g id="edge21" class="edge">
            <title>019&#45;&gt;024</title>
            <path fill="none" stroke="black" d="M475.6,-444.58C575.07,-434.6 786.67,-413.38 894.25,-402.59" />
            <polygon fill="black" stroke="black" points="894.73,-406.06 904.33,-401.58 894.03,-399.1 894.73,-406.06" />
        </g>
        <!-- 025 -->
        <g id="node26" class="node">
            <title>025</title>
            <polygon fill="yellow" stroke="black" points="1045,-360 877,-360 877,-324 1045,-324 1045,-360" />
            <text text-anchor="middle" x="961" y="-338.3" font-family="Times,serif"
                font-size="14.00">toml&#45;0.10.2.tar.gz(=0.10.2)</text>
        </g>
        <!-- 019&#45;&gt;025 -->
        <g id="edge22" class="edge">
            <title>019&#45;&gt;025</title>
            <path fill="none" stroke="black" d="M475.6,-439.15C567.12,-420.8 753.54,-383.41 866.56,-360.74" />
            <polygon fill="black" stroke="black" points="867.47,-364.13 876.58,-358.73 866.09,-357.26 867.47,-364.13" />
        </g>
        <!-- 026 -->
        <g id="node27" class="node">
            <title>026</title>
            <polygon fill="yellow" stroke="black"
                points="468.5,-1116 372.5,-1116 372.5,-1080 468.5,-1080 468.5,-1116" />
            <text text-anchor="middle" x="420.5" y="-1094.3" font-family="Times,serif"
                font-size="14.00">flake8(=3.9.2)</text>
        </g>
        <!-- 027 -->
        <g id="node28" class="node">
            <title>027</title>
            <polygon fill="none" stroke="black" stroke-dasharray="5,2"
                points="1013,-1170 909,-1170 909,-1134 1013,-1134 1013,-1170" />
            <text text-anchor="middle" x="961" y="-1148.3" font-family="Times,serif"
                font-size="14.00">mccabe(=0.6.1)</text>
        </g>
        <!-- 026&#45;&gt;027 -->
        <g id="edge23" class="edge">
            <title>026&#45;&gt;027</title>
            <path fill="none" stroke="black" d="M468.82,-1102.74C566.4,-1112.53 789.94,-1134.95 898.54,-1145.84" />
            <polygon fill="black" stroke="black"
                points="898.38,-1149.34 908.68,-1146.85 899.08,-1142.37 898.38,-1149.34" />
        </g>
        <!-- 028 -->
        <g id="node29" class="node">
            <title>028</title>
            <polygon fill="none" stroke="black" stroke-dasharray="5,2"
                points="1025.5,-1116 896.5,-1116 896.5,-1080 1025.5,-1080 1025.5,-1116" />
            <text text-anchor="middle" x="961" y="-1094.3" font-family="Times,serif"
                font-size="14.00">pycodestyle(=2.7.0)</text>
        </g>
        <!-- 026&#45;&gt;028 -->
        <g id="edge24" class="edge">
            <title>026&#45;&gt;028</title>
            <path fill="none" stroke="black" d="M468.82,-1098C562.77,-1098 773.47,-1098 885.94,-1098" />
            <polygon fill="black" stroke="black" points="886.18,-1101.5 896.18,-1098 886.18,-1094.5 886.18,-1101.5" />
        </g>
        <!-- 029 -->
        <g id="node30" class="node">
            <title>029</title>
            <polygon fill="none" stroke="black" stroke-dasharray="5,2"
                points="1015,-1062 907,-1062 907,-1026 1015,-1026 1015,-1062" />
            <text text-anchor="middle" x="961" y="-1040.3" font-family="Times,serif"
                font-size="14.00">pyflakes(=2.3.1)</text>
        </g>
        <!-- 026&#45;&gt;029 -->
        <g id="edge25" class="edge">
            <title>026&#45;&gt;029</title>
            <path fill="none" stroke="black" d="M468.82,-1093.26C565.78,-1083.53 787.1,-1061.34 896.45,-1050.37" />
            <polygon fill="black" stroke="black"
                points="897.07,-1053.83 906.67,-1049.35 896.38,-1046.86 897.07,-1053.83" />
        </g>
        <!-- 030 -->
        <g id="node31" class="node">
            <title>030</title>
            <polygon fill="yellow" stroke="black" points="1010,-630 912,-630 912,-594 1010,-594 1010,-630" />
            <text text-anchor="middle" x="961" y="-608.3" font-family="Times,serif"
                font-size="14.00">loguru(=0.5.3)</text>
        </g>
        <!-- 030&#45;&gt;09 -->
        <g id="edge26" class="edge">
            <title>030&#45;&gt;09</title>
            <path fill="none" stroke="black" d="M1010.13,-624.52C1037.77,-631.72 1072.89,-640.86 1103.13,-648.73" />
            <polygon fill="black" stroke="black"
                points="1102.62,-652.21 1113.18,-651.34 1104.38,-645.44 1102.62,-652.21" />
        </g>
        <!-- 031 -->
        <g id="node32" class="node">
            <title>031</title>
            <polygon fill="none" stroke="black" stroke-dasharray="5,2"
                points="1244.5,-630 1096.5,-630 1096.5,-594 1244.5,-594 1244.5,-630" />
            <text text-anchor="middle" x="1170.5" y="-608.3" font-family="Times,serif"
                font-size="14.00">win32&#45;setctime(=1.0.3)</text>
        </g>
        <!-- 030&#45;&gt;031 -->
        <g id="edge27" class="edge">
            <title>030&#45;&gt;031</title>
            <path fill="none" stroke="black" d="M1010.13,-612C1032.74,-612 1060.37,-612 1086.23,-612" />
            <polygon fill="black" stroke="black" points="1086.42,-615.5 1096.42,-612 1086.42,-608.5 1086.42,-615.5" />
        </g>
        <!-- 032 -->
        <g id="node33" class="node">
            <title>032</title>
            <polygon fill="yellow" stroke="black" points="841,-1251 0,-1251 0,-1215 841,-1215 841,-1251" />
            <text text-anchor="middle" x="420.5" y="-1229.3" font-family="Times,serif"
                font-size="14.00">https://files.pythonhosted.org/packages/63/30/c5c72431045f502d523bdf749ce9afa90ee1591426fcdd3db05f216ca8b7/fastapi&#45;0.66.0.tar.gz(=0.66.0)</text>
        </g>
        <!-- 033 -->
        <g id="node34" class="node">
            <title>033</title>
            <polygon fill="none" stroke="black" stroke-dasharray="5,2"
                points="1016,-1278 906,-1278 906,-1242 1016,-1242 1016,-1278" />
            <text text-anchor="middle" x="961" y="-1256.3" font-family="Times,serif"
                font-size="14.00">pydantic(=1.8.2)</text>
        </g>
        <!-- 032&#45;&gt;033 -->
        <g id="edge28" class="edge">
            <title>032&#45;&gt;033</title>
            <path fill="none" stroke="black" d="M780.69,-1251.01C824.37,-1253.2 864.48,-1255.21 895.64,-1256.77" />
            <polygon fill="black" stroke="black"
                points="895.69,-1260.28 905.85,-1257.29 896.04,-1253.29 895.69,-1260.28" />
        </g>
        <!-- 035 -->
        <g id="node36" class="node">
            <title>035</title>
            <polygon fill="none" stroke="black" stroke-dasharray="5,2"
                points="1017.5,-1224 904.5,-1224 904.5,-1188 1017.5,-1188 1017.5,-1224" />
            <text text-anchor="middle" x="961" y="-1202.3" font-family="Times,serif"
                font-size="14.00">starlette(=0.14.2)</text>
        </g>
        <!-- 032&#45;&gt;035 -->
        <g id="edge29" class="edge">
            <title>032&#45;&gt;035</title>
            <path fill="none" stroke="black" d="M780.69,-1214.99C823.67,-1212.84 863.21,-1210.85 894.15,-1209.3" />
            <polygon fill="black" stroke="black"
                points="894.49,-1212.79 904.3,-1208.79 894.14,-1205.8 894.49,-1212.79" />
        </g>
        <!-- 034 -->
        <g id="node35" class="node">
            <title>034</title>
            <polygon fill="none" stroke="black" stroke-dasharray="5,2"
                points="1260,-1278 1081,-1278 1081,-1242 1260,-1242 1260,-1278" />
            <text text-anchor="middle" x="1170.5" y="-1256.3" font-family="Times,serif"
                font-size="14.00">typing&#45;extensions(=3.10.0.0)</text>
        </g>
        <!-- 033&#45;&gt;034 -->
        <g id="edge30" class="edge">
            <title>033&#45;&gt;034</title>
            <path fill="none" stroke="black" d="M1016.25,-1260C1032.94,-1260 1051.87,-1260 1070.58,-1260" />
            <polygon fill="black" stroke="black"
                points="1070.64,-1263.5 1080.64,-1260 1070.64,-1256.5 1070.64,-1263.5" />
        </g>
    </g>
</svg>