<?xml version="1.0" encoding="UTF-8" standalone="no"?>
<!DOCTYPE svg PUBLIC "-//W3C//DTD SVG 1.1//EN" "http://www.w3.org/Graphics/SVG/1.1/DTD/svg11.dtd">
<!-- Generated by graphviz version 2.47.3 (20210619.1520)
 -->
<!-- Pages: 1 -->
<svg width="893pt" height="332pt" viewBox="0.00 0.00 892.50 332.00" xmlns="http://www.w3.org/2000/svg"
    xmlns:xlink="http://www.w3.org/1999/xlink">
    <g id="graph0" class="graph" transform="scale(1 1) rotate(0) translate(4 328)">
        <polygon fill="white" stroke="transparent" points="-4,4 -4,-328 888.5,-328 888.5,4 -4,4" />
        <!-- 00 -->
        <g id="node1" class="node">
            <title>00</title>
            <polygon fill="yellow" stroke="black" points="466,-324 147,-324 147,-288 466,-288 466,-324" />
            <text text-anchor="middle" x="306.5" y="-302.3" font-family="Times,serif"
                font-size="14.00">https://github.com/leocavalcante/encrypt.git(=HEAD)</text>
        </g>
        <!-- 01 -->
        <g id="node2" class="node">
            <title>01</title>
            <polygon fill="none" stroke="black" stroke-dasharray="5,2" points="85,-252 0,-252 0,-216 85,-216 85,-252" />
            <text text-anchor="middle" x="42.5" y="-230.3" font-family="Times,serif"
                font-size="14.00">args(=2.2.0)</text>
        </g>
        <!-- 00&#45;&gt;01 -->
        <g id="edge1" class="edge">
            <title>00&#45;&gt;01</title>
            <path fill="none" stroke="black" d="M233.06,-288C194.5,-278.75 146.29,-266.69 94.9,-252.02" />
            <polygon fill="black" stroke="black" points="95.85,-248.65 85.27,-249.25 93.92,-255.38 95.85,-248.65" />
        </g>
        <!-- 02 -->
        <g id="node3" class="node">
            <title>02</title>
            <polygon fill="none" stroke="black" stroke-dasharray="5,2"
                points="205.5,-252 103.5,-252 103.5,-216 205.5,-216 205.5,-252" />
            <text text-anchor="middle" x="154.5" y="-230.3" font-family="Times,serif"
                font-size="14.00">asn1lib(=1.0.2)</text>
        </g>
        <!-- 00&#45;&gt;02 -->
        <g id="edge2" class="edge">
            <title>00&#45;&gt;02</title>
            <path fill="none" stroke="black" d="M269.32,-287.88C248.63,-278.35 222.7,-266.41 200.72,-256.28" />
            <polygon fill="black" stroke="black" points="202.11,-253.07 191.56,-252.07 199.18,-259.43 202.11,-253.07" />
        </g>
        <!-- 03 -->
        <g id="node4" class="node">
            <title>03</title>
            <polygon fill="none" stroke="black" stroke-dasharray="5,2"
                points="315.5,-252 223.5,-252 223.5,-216 315.5,-216 315.5,-252" />
            <text text-anchor="middle" x="269.5" y="-230.3" font-family="Times,serif"
                font-size="14.00">clock(=1.1.0)</text>
        </g>
        <!-- 00&#45;&gt;03 -->
        <g id="edge3" class="edge">
            <title>00&#45;&gt;03</title>
            <path fill="none" stroke="black" d="M297.35,-287.7C293.1,-279.64 287.94,-269.89 283.23,-260.98" />
            <polygon fill="black" stroke="black" points="286.31,-259.31 278.54,-252.1 280.12,-262.58 286.31,-259.31" />
        </g>
        <!-- 04 -->
        <g id="node5" class="node">
            <title>04</title>
            <polygon fill="none" stroke="black" stroke-dasharray="5,2"
                points="582.5,-36 458.5,-36 458.5,0 582.5,0 582.5,-36" />
            <text text-anchor="middle" x="520.5" y="-14.3" font-family="Times,serif"
                font-size="14.00">collection(=1.15.0)</text>
        </g>
        <!-- 00&#45;&gt;04 -->
        <g id="edge4" class="edge">
            <title>00&#45;&gt;04</title>
            <path fill="none" stroke="black"
                d="M312.35,-287.87C326.32,-247.06 360.56,-147.22 362.5,-144 385.05,-106.56 395.36,-99.29 429.5,-72 443.94,-60.45 461.18,-49.76 476.75,-41.04" />
            <polygon fill="black" stroke="black" points="478.6,-44.02 485.69,-36.15 475.23,-37.88 478.6,-44.02" />
        </g>
        <!-- 05 -->
        <g id="node6" class="node">
            <title>05</title>
            <polygon fill="none" stroke="black" stroke-dasharray="5,2"
                points="469,-180 372,-180 372,-144 469,-144 469,-180" />
            <text text-anchor="middle" x="420.5" y="-158.3" font-family="Times,serif"
                font-size="14.00">crypto(=3.0.1)</text>
        </g>
        <!-- 00&#45;&gt;05 -->
        <g id="edge5" class="edge">
            <title>00&#45;&gt;05</title>
            <path fill="none" stroke="black"
                d="M324.19,-287.95C334.33,-277.84 347.08,-264.59 357.5,-252 374.4,-231.57 391.67,-206.85 403.84,-188.65" />
            <polygon fill="black" stroke="black" points="406.78,-190.56 409.38,-180.29 400.94,-186.69 406.78,-190.56" />
        </g>
        <!-- 07 -->
        <g id="node8" class="node">
            <title>07</title>
            <polygon fill="none" stroke="black" stroke-dasharray="5,2"
                points="604,-252 475,-252 475,-216 604,-216 604,-252" />
            <text text-anchor="middle" x="539.5" y="-230.3" font-family="Times,serif"
                font-size="14.00">pointycastle(=3.1.3)</text>
        </g>
        <!-- 00&#45;&gt;07 -->
        <g id="edge6" class="edge">
            <title>00&#45;&gt;07</title>
            <path fill="none" stroke="black" d="M363.2,-287.97C396.18,-278.06 437.93,-265.51 472.53,-255.12" />
            <polygon fill="black" stroke="black" points="473.98,-258.34 482.55,-252.11 471.96,-251.64 473.98,-258.34" />
        </g>
        <!-- 05&#45;&gt;04 -->
        <g id="edge7" class="edge">
            <title>05&#45;&gt;04</title>
            <path fill="none" stroke="black"
                d="M422.9,-143.86C426.25,-124.83 433.78,-93.92 449.5,-72 457.87,-60.33 469.57,-50.13 481.07,-41.87" />
            <polygon fill="black" stroke="black" points="483.07,-44.74 489.35,-36.21 479.12,-38.96 483.07,-44.74" />
        </g>
        <!-- 06 -->
        <g id="node7" class="node">
            <title>06</title>
            <polygon fill="none" stroke="black" stroke-dasharray="5,2"
                points="582,-108 459,-108 459,-72 582,-72 582,-108" />
            <text text-anchor="middle" x="520.5" y="-86.3" font-family="Times,serif"
                font-size="14.00">typed_data(=1.3.0)</text>
        </g>
        <!-- 05&#45;&gt;06 -->
        <g id="edge8" class="edge">
            <title>05&#45;&gt;06</title>
            <path fill="none" stroke="black" d="M444.96,-143.88C457.8,-134.89 473.7,-123.76 487.59,-114.03" />
            <polygon fill="black" stroke="black" points="489.76,-116.79 495.94,-108.19 485.74,-111.06 489.76,-116.79" />
        </g>
        <!-- 06&#45;&gt;04 -->
        <g id="edge9" class="edge">
            <title>06&#45;&gt;04</title>
            <path fill="none" stroke="black" d="M520.5,-71.7C520.5,-63.98 520.5,-54.71 520.5,-46.11" />
            <polygon fill="black" stroke="black" points="524,-46.1 520.5,-36.1 517,-46.1 524,-46.1" />
        </g>
        <!-- 07&#45;&gt;04 -->
        <g id="edge10" class="edge">
            <title>07&#45;&gt;04</title>
            <path fill="none" stroke="black"
                d="M568.54,-215.84C580.82,-206.87 593.81,-194.68 600.5,-180 607.14,-165.44 601.6,-159.96 600.5,-144 598.27,-111.77 606.84,-99.87 590.5,-72 583.56,-60.16 572.84,-50.09 561.86,-42.01" />
            <polygon fill="black" stroke="black" points="563.69,-39.02 553.47,-36.23 559.71,-44.79 563.69,-39.02" />
        </g>
        <!-- 08 -->
        <g id="node9" class="node">
            <title>08</title>
            <polygon fill="none" stroke="black" stroke-dasharray="5,2"
                points="591.5,-180 487.5,-180 487.5,-144 591.5,-144 591.5,-180" />
            <text text-anchor="middle" x="539.5" y="-158.3" font-family="Times,serif"
                font-size="14.00">convert(=3.0.1)</text>
        </g>
        <!-- 07&#45;&gt;08 -->
        <g id="edge11" class="edge">
            <title>07&#45;&gt;08</title>
            <path fill="none" stroke="black" d="M539.5,-215.7C539.5,-207.98 539.5,-198.71 539.5,-190.11" />
            <polygon fill="black" stroke="black" points="543,-190.1 539.5,-180.1 536,-190.1 543,-190.1" />
        </g>
        <!-- 08&#45;&gt;06 -->
        <g id="edge12" class="edge">
            <title>08&#45;&gt;06</title>
            <path fill="none" stroke="black" d="M534.8,-143.7C532.69,-135.9 530.14,-126.51 527.78,-117.83" />
            <polygon fill="black" stroke="black" points="531.14,-116.84 525.14,-108.1 524.38,-118.67 531.14,-116.84" />
        </g>
        <!-- 09 -->
        <g id="node10" class="node">
            <title>09</title>
            <polygon fill="yellow" stroke="black" points="861.5,-108 775.5,-108 775.5,-72 861.5,-72 861.5,-108" />
            <text text-anchor="middle" x="818.5" y="-86.3" font-family="Times,serif"
                font-size="14.00">path(=1.8.0)</text>
        </g>
        <!-- 010 -->
        <g id="node11" class="node">
            <title>010</title>
            <polygon fill="yellow" stroke="black" points="757,-108 648,-108 648,-72 757,-72 757,-108" />
            <text text-anchor="middle" x="702.5" y="-86.3" font-family="Times,serif"
                font-size="14.00">provider(=5.0.0)</text>
        </g>
        <!-- 010&#45;&gt;04 -->
        <g id="edge13" class="edge">
            <title>010&#45;&gt;04</title>
            <path fill="none" stroke="black" d="M657.98,-71.88C632.77,-62.18 601.05,-49.98 574.43,-39.74" />
            <polygon fill="black" stroke="black" points="575.47,-36.39 564.88,-36.07 572.95,-42.92 575.47,-36.39" />
        </g>
        <!-- 011 -->
        <g id="node12" class="node">
            <title>011</title>
            <polygon fill="none" stroke="black" stroke-dasharray="5,2" points="751,-36 654,-36 654,0 751,0 751,-36" />
            <text text-anchor="middle" x="702.5" y="-14.3" font-family="Times,serif"
                font-size="14.00">nested(=1.0.0)</text>
        </g>
        <!-- 010&#45;&gt;011 -->
        <g id="edge14" class="edge">
            <title>010&#45;&gt;011</title>
            <path fill="none" stroke="black" d="M702.5,-71.7C702.5,-63.98 702.5,-54.71 702.5,-46.11" />
            <polygon fill="black" stroke="black" points="706,-46.1 702.5,-36.1 699,-46.1 706,-46.1" />
        </g>
        <!-- 012 -->
        <g id="node13" class="node">
            <title>012</title>
            <polygon fill="yellow" stroke="black" points="867,-324 770,-324 770,-288 867,-288 867,-324" />
            <text text-anchor="middle" x="818.5" y="-302.3" font-family="Times,serif"
                font-size="14.00">quiver(=3.0.1)</text>
        </g>
        <!-- 013 -->
        <g id="node14" class="node">
            <title>013</title>
            <polygon fill="none" stroke="black" stroke-dasharray="5,2"
                points="879,-252 758,-252 758,-216 879,-216 879,-252" />
            <text text-anchor="middle" x="818.5" y="-230.3" font-family="Times,serif"
                font-size="14.00">matcher(=0.12.10)</text>
        </g>
        <!-- 012&#45;&gt;013 -->
        <g id="edge15" class="edge">
            <title>012&#45;&gt;013</title>
            <path fill="none" stroke="black" d="M818.5,-287.7C818.5,-279.98 818.5,-270.71 818.5,-262.11" />
            <polygon fill="black" stroke="black" points="822,-262.1 818.5,-252.1 815,-262.1 822,-262.1" />
        </g>
        <!-- 014 -->
        <g id="node15" class="node">
            <title>014</title>
            <polygon fill="none" stroke="black" stroke-dasharray="5,2"
                points="884.5,-180 752.5,-180 752.5,-144 884.5,-144 884.5,-180" />
            <text text-anchor="middle" x="818.5" y="-158.3" font-family="Times,serif"
                font-size="14.00">stack_trace(=1.10.0)</text>
        </g>
        <!-- 013&#45;&gt;014 -->
        <g id="edge16" class="edge">
            <title>013&#45;&gt;014</title>
            <path fill="none" stroke="black" d="M818.5,-215.7C818.5,-207.98 818.5,-198.71 818.5,-190.11" />
            <polygon fill="black" stroke="black" points="822,-190.1 818.5,-180.1 815,-190.1 822,-190.1" />
        </g>
        <!-- 014&#45;&gt;09 -->
        <g id="edge17" class="edge">
            <title>014&#45;&gt;09</title>
            <path fill="none" stroke="black" d="M818.5,-143.7C818.5,-135.98 818.5,-126.71 818.5,-118.11" />
            <polygon fill="black" stroke="black" points="822,-118.1 818.5,-108.1 815,-118.1 822,-118.1" />
        </g>
    </g>
</svg>