<?xml version="1.0" encoding="UTF-8" standalone="no"?>
<!DOCTYPE svg PUBLIC "-//W3C//DTD SVG 1.1//EN" "http://www.w3.org/Graphics/SVG/1.1/DTD/svg11.dtd">
<!-- Generated by graphviz version 2.47.3 (20210619.1520)
 -->
<!-- Pages: 1 -->
<svg width="338pt" height="368pt" viewBox="0.00 0.00 338.00 368.00" xmlns="http://www.w3.org/2000/svg"
    xmlns:xlink="http://www.w3.org/1999/xlink">
    <g id="graph0" class="graph" transform="scale(1 1) rotate(0) translate(4 364)">
        <polygon fill="white" stroke="transparent" points="-4,4 -4,-364 334,-364 334,4 -4,4" />
        <!-- 00 -->
        <g id="node1" class="node">
            <title>00</title>
            <polygon fill="yellow" stroke="black" points="330,-36 0,-36 0,0 330,0 330,-36" />
            <text text-anchor="middle" x="165" y="-14.3" font-family="Times,serif"
                font-size="14.00">https://github.com/phoenixframework/phoenix(=v1.5.1)</text>
        </g>
        <!-- 01 -->
        <g id="node2" class="node">
            <title>01</title>
            <polygon fill="yellow" stroke="black" points="202,-90 128,-90 128,-54 202,-54 202,-90" />
            <text text-anchor="middle" x="165" y="-68.3" font-family="Times,serif" font-size="14.00">ecto(~2.0)</text>
        </g>
        <!-- 02 -->
        <g id="node3" class="node">
            <title>02</title>
            <polygon fill="yellow" stroke="black" points="214,-144 116,-144 116,-108 214,-108 214,-144" />
            <text text-anchor="middle" x="165" y="-122.3" font-family="Times,serif"
                font-size="14.00">ex_doc(~0.23)</text>
        </g>
        <!-- 03 -->
        <g id="node4" class="node">
            <title>03</title>
            <polygon fill="yellow" stroke="black" points="213.5,-198 116.5,-198 116.5,-162 213.5,-162 213.5,-198" />
            <text text-anchor="middle" x="165" y="-176.3" font-family="Times,serif"
                font-size="14.00">faker(~0.16.0)</text>
        </g>
        <!-- 04 -->
        <g id="node5" class="node">
            <title>04</title>
            <polygon fill="yellow" stroke="black" points="205,-252 125,-252 125,-216 205,-216 205,-252" />
            <text text-anchor="middle" x="165" y="-230.3" font-family="Times,serif" font-size="14.00">jason(~1.0)</text>
        </g>
        <!-- 05 -->
        <g id="node6" class="node">
            <title>05</title>
            <polygon fill="yellow" stroke="black" points="212.5,-306 117.5,-306 117.5,-270 212.5,-270 212.5,-306" />
            <text text-anchor="middle" x="165" y="-284.3" font-family="Times,serif"
                font-size="14.00">plug(&gt;=0.4.0)</text>
        </g>
        <!-- 06 -->
        <g id="node7" class="node">
            <title>06</title>
            <polygon fill="yellow" stroke="black" points="256.5,-360 73.5,-360 73.5,-324 256.5,-324 256.5,-360" />
            <text text-anchor="middle" x="165" y="-338.3" font-family="Times,serif"
                font-size="14.00">postgrex((&gt;=0.8.1) , (&lt;3.0.0))</text>
        </g>
    </g>
</svg>